<?xml version="1.0" encoding="UTF-8"?>
<svg version="1.1" xmlns="http://www.w3.org/2000/svg" width="1500" height="1500">
<path d="M0 0 C495 0 990 0 1500 0 C1500 495 1500 990 1500 1500 C1005 1500 510 1500 0 1500 C0 1005 0 510 0 0 Z " fill="#FEFEFE" transform="translate(0,0)"/>
<path d="M0 0 C18.81 0 37.62 0 57 0 C57 150.15 57 300.3 57 455 C70.86 455 84.72 455 99 455 C99 304.85 99 154.7 99 0 C117.81 0 136.62 0 156 0 C156 117.48 156 234.96 156 356 C169.53 356 183.06 356 197 356 C197 238.52 197 121.04 197 0 C215.81 0 234.62 0 254 0 C254 86.13 254 172.26 254 261 C321.98 261 389.96 261 460 261 C460 174.87 460 88.74 460 0 C478.81 0 497.62 0 517 0 C517 86.13 517 172.26 517 261 C530.53 261 544.06 261 558 261 C558 174.87 558 88.74 558 0 C576.81 0 595.62 0 615 0 C615 86.13 615 172.26 615 261 C628.86 261 642.72 261 657 261 C657 174.87 657 88.74 657 0 C675.81 0 694.62 0 714 0 C714 243.54 714 487.08 714 738 C695.19 738 676.38 738 657 738 C656.67 616.56 656.34 495.12 656 370 C639.62764757 386.15164454 639.62764757 386.15164454 624 403 C622.55728238 404.23973621 621.10241048 405.46580498 619.625 406.66398621 C615.32213793 410.95167478 615.04073509 414.66752962 614.94117641 420.591259 C614.9605882 421.84029636 614.97999998 423.08933372 615 424.3762207 C614.99237225 425.73195827 614.98123603 427.08767983 614.96691227 428.44336319 C614.93778763 432.15418757 614.95820323 435.86331655 614.98693204 439.57408261 C615.00919709 443.58088224 614.98520789 447.58744055 614.96690369 451.59422302 C614.94151214 458.53128804 614.94527189 465.46784286 614.96896362 472.40490723 C615.00317496 482.43456659 614.99321703 492.46380175 614.97256029 502.49348044 C614.94024037 518.76671846 614.94352463 535.03974609 614.96923828 551.31298828 C614.99413684 567.11869335 615.00224297 582.92426027 614.98779297 598.72998047 C614.98690776 599.70462623 614.98602255 600.679272 614.98511052 601.68345249 C614.98056609 606.57307901 614.97569181 611.46270513 614.97065353 616.35233116 C614.92929811 656.9016322 614.94793981 697.45071922 615 738 C596.19 738 577.38 738 558 738 C557.67 649.89 557.34 561.78 557 471 C529.70935812 490.55127113 529.70935812 490.55127113 516.61523914 516.0060997 C516.60105433 517.193692 516.60105433 517.193692 516.58658296 518.40527606 C516.59385432 519.70099406 516.59385432 519.70099406 516.60127258 521.02288818 C516.59462576 521.94510516 516.58797893 522.86732214 516.58113068 523.81748509 C516.56244504 526.91456768 516.56510974 530.01126583 516.56762695 533.10839844 C516.55861321 535.3257146 516.54828695 537.54302576 516.53674316 539.7603302 C516.50910167 545.7867737 516.49987892 551.81312285 516.49388909 557.83962154 C516.48452403 564.13508297 516.45832219 570.4304734 516.43388367 576.72589111 C516.39513402 587.2946249 516.3668025 597.86334707 516.34643555 608.43212891 C516.32542923 619.31789886 516.2981572 630.20362338 516.26245117 641.08935547 C516.26025235 641.76037858 516.25805352 642.43140169 516.25578807 643.12275884 C516.2447185 646.48909268 516.23352568 649.85542609 516.22227156 653.22175932 C516.12934624 681.14781134 516.05993161 709.07385634 516 737 C497.52 737 479.04 737 460 737 C460 662.75 460 588.5 460 512 C392.02 512 324.04 512 254 512 C254 586.58 254 661.16 254 738 C235.19 738 216.38 738 197 738 C197 663.42 197 588.84 197 512 C183.47 512 169.94 512 156 512 C156 586.58 156 661.16 156 738 C137.19 738 118.38 738 99 738 C99 663.42 99 588.84 99 512 C85.14 512 71.28 512 57 512 C57 586.58 57 661.16 57 738 C38.19 738 19.38 738 0 738 C0 494.46 0 250.92 0 0 Z " fill="#BF9B74" transform="translate(393,316)"/>
<path d="M0 0 C18.81 0 37.62 0 57 0 C57 150.15 57 300.3 57 455 C70.86 455 84.72 455 99 455 C99 455.66 99 456.32 99 457 C99.9345829 456.98120789 99.9345829 456.98120789 100.88804626 456.96203613 C107.625552 456.82739059 114.36315551 456.69865973 121.10083008 456.57275391 C123.58523185 456.52564276 126.06960934 456.47722483 128.55395508 456.42724609 C143.34288303 456.13080205 158.12616973 455.96191573 172.91796875 455.97265625 C174.17802697 455.97308725 174.17802697 455.97308725 175.46354091 455.97352695 C204.63755374 455.98471847 233.81155602 456.09889718 262.98539133 456.19354314 C271.77924027 456.22204751 280.57309158 456.24979058 289.36694305 456.27750319 C305.03947083 456.32691219 320.71199673 456.37689085 336.38452148 456.42724609 C351.57657781 456.47605635 366.76863498 456.5245869 381.96069336 456.57275391 C383.37381325 456.5772344 383.37381325 456.5772344 384.81548101 456.58180541 C389.54330372 456.59679394 394.27112644 456.61177711 398.99894917 456.62675762 C437.99930212 456.75034044 476.99965192 456.87489171 516 457 C516 474.49 516 491.98 516 510 C497.52 510.33 479.04 510.66 460 511 C460 511.33 460 511.66 460 512 C392.02 512 324.04 512 254 512 C254 586.58 254 661.16 254 738 C235.19 738 216.38 738 197 738 C197 663.42 197 588.84 197 512 C183.47 512 169.94 512 156 512 C156 586.58 156 661.16 156 738 C137.19 738 118.38 738 99 738 C99 663.42 99 588.84 99 512 C85.14 512 71.28 512 57 512 C57 586.58 57 661.16 57 738 C38.19 738 19.38 738 0 738 C0 494.46 0 250.92 0 0 Z " fill="#C3996C" transform="translate(393,316)"/>
<path d="M0 0 C18.81 0 37.62 0 57 0 C57 150.48 57 300.96 57 456 C38.19 456 19.38 456 0 456 C0 305.52 0 155.04 0 0 Z " fill="#074C89" transform="translate(393,316)"/>
<path d="M0 0 C18.48 0 36.96 0 56 0 C56 150.15 56 300.3 56 455 C37.52 455 19.04 455 0 455 C0 304.85 0 154.7 0 0 Z " fill="#044A87" transform="translate(853,316)"/>
<path d="M0 0 C18.48 0 36.96 0 56 0 C56 150.15 56 300.3 56 455 C37.52 455 19.04 455 0 455 C0 304.85 0 154.7 0 0 Z " fill="#044A88" transform="translate(492,316)"/>
<path d="M0 0 C0 140.91 0 281.82 0 427 C-18.81 427 -37.62 427 -57 427 C-57.63436497 380.34160357 -58.13500459 333.68425132 -58.42982922 287.02238922 C-58.46484462 281.50059602 -58.50108607 275.9788115 -58.53808594 270.45703125 C-58.54543063 269.35784848 -58.55277532 268.2586657 -58.56034258 267.12617436 C-58.68183745 249.38018057 -58.90240331 231.6367536 -59.16027829 213.89227733 C-59.42309948 195.65390245 -59.57784722 177.41686177 -59.63447785 159.17667127 C-59.67270528 147.94006593 -59.79290912 136.710716 -60.02166107 125.47634795 C-60.17089665 117.74851805 -60.21414099 110.02437838 -60.17803857 102.29521582 C-60.1602718 97.84740929 -60.1853285 93.4121609 -60.3377533 88.96665573 C-60.87473393 72.50098629 -60.60873708 59.38740659 -48.97893889 46.79080881 C-43.69568302 41.37243969 -37.98201777 36.47673422 -32.14084482 31.67557383 C-28.30381396 28.48367947 -25.13419528 24.86951891 -22 21 C-20.27211576 19.18950899 -18.52628987 17.39586122 -16.7578125 15.625 C-15.83742188 14.70332031 -14.91703125 13.78164063 -13.96875 12.83203125 C-13.50210937 12.36748535 -13.03546875 11.90293945 -12.5546875 11.42431641 C-11.10296045 9.97804325 -9.6567755 8.52637682 -8.2109375 7.07421875 C-7.29828125 6.16285156 -6.385625 5.25148438 -5.4453125 4.3125 C-4.61531738 3.48363281 -3.78532227 2.65476562 -2.93017578 1.80078125 C-1 0 -1 0 0 0 Z " fill="#074C89" transform="translate(1107,627)"/>
<path d="M0 0 C18.48 0 36.96 0 56 0 C56 117.81 56 235.62 56 357 C37.52 357 19.04 357 0 357 C0 239.19 0 121.38 0 0 Z " fill="#044A88" transform="translate(952,316)"/>
<path d="M0 0 C18.48 0 36.96 0 56 0 C56 117.81 56 235.62 56 357 C37.52 357 19.04 357 0 357 C0 239.19 0 121.38 0 0 Z " fill="#044A88" transform="translate(591,316)"/>
<path d="M0 0 C0 106.92 0 213.84 0 324 C-18.48 324 -36.96 324 -56 324 C-56.26474211 289.9351572 -56.48623314 255.87131586 -56.61278395 221.80575325 C-56.62779173 217.78049384 -56.64332367 213.75523662 -56.65917969 209.72998047 C-56.66390128 208.527989 -56.66390128 208.527989 -56.66871825 207.30171487 C-56.72087913 194.34086246 -56.81546223 181.38065129 -56.92583355 168.4201788 C-57.03820783 155.11313485 -57.10473777 141.80642582 -57.12906194 128.49892688 C-57.14549639 120.2926023 -57.19732048 112.08809031 -57.2949976 103.88232401 C-57.35862417 98.24879736 -57.37755886 92.61620222 -57.36201653 86.98234269 C-57.35435739 83.73497023 -57.37239612 80.49140318 -57.4304657 77.24445152 C-57.79637845 55.7239124 -57.79637845 55.7239124 -51.79408526 49.15677238 C-49.3318075 46.88085408 -46.72040252 44.96178344 -44 43 C-42.71193873 41.63230322 -41.45480556 40.23283256 -40.2668457 38.77734375 C-36.61858523 34.50513559 -32.69853709 30.53667438 -28.73046875 26.5625 C-27.96825516 25.79695801 -27.20604156 25.03141602 -26.42073059 24.24267578 C-24.82451788 22.64143771 -23.22698208 21.04151757 -21.62817383 19.44287109 C-19.17175823 16.98424406 -16.7234796 14.51769604 -14.27539062 12.05078125 C-12.71923871 10.49169956 -11.16261516 8.93308843 -9.60546875 7.375 C-8.87216843 6.63451416 -8.1388681 5.89402832 -7.38334656 5.13110352 C-6.70536514 4.45619873 -6.02738373 3.78129395 -5.32885742 3.0859375 C-4.73264084 2.4882959 -4.13642426 1.8906543 -3.5221405 1.27490234 C-2 0 -2 0 0 0 Z " fill="#044B88" transform="translate(1008,729)"/>
<path d="M0 0 C18.81 0 37.62 0 57 0 C57.17636919 33.25814147 57.32407943 66.51582909 57.40852264 99.77429751 C57.41852827 103.70085086 57.42888285 107.62740321 57.43945312 111.55395508 C57.44155161 112.33565998 57.44365009 113.11736487 57.44581217 113.9227578 C57.48062164 126.57964203 57.54369734 139.23623555 57.61722237 151.89294732 C57.69203824 164.8801955 57.73647091 177.86729144 57.75270796 190.85474628 C57.7636845 198.86871916 57.79834883 206.88187032 57.86333174 214.89559024 C57.91062499 221.04090588 57.91564081 227.18559528 57.90486145 233.33106804 C57.90706457 235.85183142 57.92300804 238.37262556 57.9536438 240.89320374 C57.99341529 244.33384521 57.98389627 247.77096328 57.96203613 251.21168518 C57.98533886 252.21072374 58.0086416 253.20976231 58.03265047 254.23907477 C57.96311673 258.28399511 57.87653518 260.9338016 55.2507323 264.12777132 C53.24094425 265.89555847 51.18046476 267.45137158 49 269 C47.24940678 270.68218303 45.5170999 272.38373487 43.80908203 274.10913086 C43.35270859 274.56857086 42.89633514 275.02801086 42.4261322 275.50137329 C41.45332349 276.48123929 40.48165727 277.46224076 39.5110817 278.44431877 C37.97529143 279.99773812 36.43577918 281.54738224 34.89523315 283.09608459 C30.52215697 287.49342976 26.155031 291.89665146 21.79199219 296.30395508 C19.10913727 299.01351273 16.42149427 301.71824278 13.73080063 304.42001534 C12.70900295 305.44802855 11.68910769 306.47793625 10.67114639 307.50974846 C9.2568109 308.94319276 7.83584616 310.37008718 6.41455078 311.79663086 C5.20498215 313.01738564 5.20498215 313.01738564 3.97097778 314.26280212 C2 316 2 316 0 316 C0 211.72 0 107.44 0 0 Z " fill="#044B88" transform="translate(1050,316)"/>
<path d="M0 0 C99.33 0 198.66 0 301 0 C301 17.82 301 35.64 301 54 C201.67 54 102.34 54 0 54 C0 36.18 0 18.36 0 0 Z " fill="#C4996B" transform="translate(550,674)"/>
<path d="M0 0 C18.48 0 36.96 0 56 0 C56 74.25 56 148.5 56 225 C37.52 225 19.04 225 0 225 C0 150.75 0 76.5 0 0 Z " fill="#044A87" transform="translate(853,828)"/>
<path d="M0 0 C18.48 0 36.96 0 56 0 C56 74.25 56 148.5 56 225 C37.52 225 19.04 225 0 225 C0 150.75 0 76.5 0 0 Z " fill="#044A88" transform="translate(591,828)"/>
<path d="M0 0 C18.48 0 36.96 0 56 0 C56 74.25 56 148.5 56 225 C37.52 225 19.04 225 0 225 C0 150.75 0 76.5 0 0 Z " fill="#044A88" transform="translate(492,828)"/>
<path d="M0 0 C18.48 0 36.96 0 56 0 C56 74.25 56 148.5 56 225 C37.52 225 19.04 225 0 225 C0 150.75 0 76.5 0 0 Z " fill="#054B88" transform="translate(393,828)"/>
<path d="M0 0 C67.98 0 135.96 0 206 0 C206 16.5 206 33 206 50 C138.02 50 70.04 50 0 50 C0 33.5 0 17 0 0 Z " fill="#C39A6E" transform="translate(647,577)"/>
<path d="M0 0 C67.98 0 135.96 0 206 0 C206 15.18 206 30.36 206 46 C138.02 46 70.04 46 0 46 C0 30.82 0 15.64 0 0 Z " fill="#FDFDFC" transform="translate(647,627)"/>
<path d="M0 0 C67.98 0 135.96 0 206 0 C206 13.86 206 27.72 206 42 C138.02 42 70.04 42 0 42 C0 28.14 0 14.28 0 0 Z " fill="#FEFEFD" transform="translate(647,729)"/>
<path d="M0 0 C0.33 0 0.66 0 1 0 C1 117.48 1 234.96 1 356 C14.53 356 28.06 356 42 356 C42 238.52 42 121.04 42 0 C42.33 0 42.66 0 43 0 C43 117.81 43 235.62 43 357 C129.46 357 215.92 357 305 357 C305 375.48 305 393.96 305 413 C237.02 413 169.04 413 99 413 C99 426.86 99 440.72 99 455 C166.98 455 234.96 455 305 455 C305 455.33 305 455.66 305 456 C267.24244165 456.12852714 229.48487993 456.25601706 191.72731361 456.38218227 C187.23430606 456.39719631 182.74129853 456.41221864 178.24829102 456.42724609 C176.90699822 456.43173202 176.90699822 456.43173202 175.5386086 456.43630856 C161.20202569 456.48427652 146.86544512 456.53291024 132.52886534 456.58180541 C117.73560012 456.63224271 102.9423325 456.68192891 88.14906257 456.73096704 C79.87476454 456.75841572 71.60046783 456.78617628 63.32617378 456.81480408 C23.55058007 456.95223035 -16.22412785 457.03487198 -56 457 C-56 456.34 -56 455.68 -56 455 C-37.52 455 -19.04 455 0 455 C0 304.85 0 154.7 0 0 Z M2 358 C2 375.82 2 393.64 2 412 C101.33 412 200.66 412 303 412 C303 394.18 303 376.36 303 358 C203.67 358 104.34 358 2 358 Z " fill="#AAADAD" transform="translate(548,316)"/>
<path d="M0 0 C5.83491118 -0.09933715 11.66932337 -0.17168936 17.50488281 -0.21972656 C19.48739199 -0.23976497 21.46984263 -0.26700353 23.45214844 -0.30175781 C26.31199641 -0.35061954 29.17105881 -0.37304673 32.03125 -0.390625 C32.90865845 -0.41127014 33.78606689 -0.43191528 34.69006348 -0.45318604 C41.68433985 -0.45570088 46.83534121 1.33384499 52.20703125 5.859375 C57.6364489 12.25314177 60.69679774 18.16033385 60.34375 26.70703125 C59.30013203 33.66843746 55.86237091 38.6924576 50.9765625 43.58984375 C48.47586598 45.37393751 45.91407299 46.07621264 43 47 C44.95527196 50.64890156 46.91251739 54.29673674 48.87158203 57.94360352 C49.53748769 59.18387306 50.20285736 60.42443053 50.86767578 61.6652832 C51.82443064 63.45079656 52.78312056 65.23525897 53.7421875 67.01953125 C54.3182373 68.09307861 54.89428711 69.16662598 55.48779297 70.27270508 C57.00309616 73.0930897 57.00309616 73.0930897 59 76 C58.505 77.98 58.505 77.98 58 80 C53.05 80 48.1 80 43 80 C42.06800781 77.84597656 41.13601563 75.69195313 40.17578125 73.47265625 C39.23128747 71.3883326 38.26937041 69.31293305 37.30541992 67.23754883 C36.64810881 65.79767061 36.00906673 64.34929941 35.3894043 62.89282227 C33.36590466 58.15728228 31.36606471 53.93094301 28 50 C23.52309231 48.47574235 19.6670144 48.43152719 15 49 C15.00523682 49.90355225 15.01047363 50.80710449 15.01586914 51.73803711 C15.03287686 55.07951489 15.04543333 58.42094692 15.05493164 61.76245117 C15.05997101 63.21070073 15.06680253 64.65894517 15.07543945 66.10717773 C15.08752247 68.18474588 15.09323211 70.26224697 15.09765625 72.33984375 C15.10289307 73.59144287 15.10812988 74.84304199 15.11352539 76.13256836 C15 79 15 79 14 80 C11.83519203 80.0989294 9.66706215 80.129711 7.5 80.125 C6.3140625 80.12757812 5.128125 80.13015625 3.90625 80.1328125 C1 80 1 80 0 79 C-0.09500548 76.53555943 -0.12557985 74.09925374 -0.11352539 71.63452148 C-0.11367142 70.86384338 -0.11381744 70.09316528 -0.1139679 69.2991333 C-0.1132686 66.73975861 -0.10547545 64.1804558 -0.09765625 61.62109375 C-0.09579213 59.85132385 -0.0943682 58.08155344 -0.09336853 56.31178284 C-0.08954288 51.64448634 -0.0797122 46.97722077 -0.06866455 42.30993652 C-0.05845144 37.55102965 -0.05387113 32.79211779 -0.04882812 28.03320312 C-0.03808997 18.68878847 -0.02101299 9.3443968 0 0 Z " fill="#084C87" transform="translate(924,1103)"/>
<path d="M0 0 C38.73193473 0 38.73193473 0 46.20703125 5.67578125 C52.15573065 11.74027042 54.14212459 16.33360576 54.5 24.8125 C54.29042488 32.70929053 52.54490717 38.44184084 46.91015625 44.09765625 C39.63792514 50.15163326 32.78738505 51.31826915 23.5625 51.125 C22.73556641 51.11597656 21.90863281 51.10695313 21.05664062 51.09765625 C19.03763292 51.07431512 17.01877644 51.03845288 15 51 C15.00523682 51.84296631 15.01047363 52.68593262 15.01586914 53.55444336 C15.03287826 56.67227936 15.04543406 59.79009177 15.05493164 62.90795898 C15.05997057 64.25920386 15.06680177 65.61044326 15.07543945 66.96166992 C15.08752419 68.90020434 15.09269828 70.838778 15.09765625 72.77734375 C15.10289307 73.94515381 15.10812988 75.11296387 15.11352539 76.31616211 C15 79 15 79 14 80 C9.38 80 4.76 80 0 80 C0 53.6 0 27.2 0 0 Z " fill="#084D88" transform="translate(500,1103)"/>
<path d="M0 0 C1.79321289 0.11889648 1.79321289 0.11889648 4 1 C5.67358398 3.61743164 5.67358398 3.61743164 7.30859375 7.09765625 C7.60688583 7.72366226 7.90517792 8.34966827 8.21250916 8.99464417 C9.15734479 10.98951041 10.08027278 12.99344971 11 15 C11.58061851 16.24866233 12.16150522 17.49719999 12.74267578 18.74560547 C14.54108058 22.63162942 16.30390637 26.53333359 18.0625 30.4375 C19.03368707 32.5892374 20.0052633 34.74079877 20.97689819 36.89233398 C21.64168802 38.36465529 22.30609534 39.83714937 22.97012329 41.30981445 C24.99339372 45.79182599 27.03785429 50.26340783 29.10142517 54.727005 C30.42405907 57.58921841 31.73947871 60.45471783 33.0541687 63.32058716 C33.6824058 64.68516282 34.31399689 66.04819956 34.94900513 67.40963745 C35.82908623 69.29778022 36.69706251 71.19104823 37.5625 73.0859375 C38.30693359 74.6954126 38.30693359 74.6954126 39.06640625 76.33740234 C40 79 40 79 39 82 C34.61585533 82.34211534 30.37567839 82.50488597 26 82 C21.53149847 77.85067715 20.98998554 72.96995661 19 67 C7.45 67 -4.1 67 -16 67 C-16.99 69.97 -17.98 72.94 -19 76 C-20.375 79.5625 -20.375 79.5625 -23 82 C-27.37567839 82.50488597 -31.61585533 82.34211534 -36 82 C-37.26006743 78.2197977 -36.57319318 77.4752752 -34.88671875 73.953125 C-34.38922119 72.89931641 -33.89172363 71.84550781 -33.37915039 70.75976562 C-32.82090576 69.60154297 -32.26266113 68.44332031 -31.6875 67.25 C-30.8032355 65.38772871 -29.92249314 63.52381406 -29.04167175 61.65991211 C-28.40450978 60.31251377 -27.76613534 58.96568824 -27.12666321 57.61938477 C-24.4892906 52.06156084 -21.90451033 46.48054027 -19.3359375 40.890625 C-18.74269432 39.60010223 -18.74269432 39.60010223 -18.13746643 38.2835083 C-16.55917891 34.848848 -14.98170926 31.41381404 -13.40560913 27.97814941 C-9.08751682 18.57150281 -4.71967052 9.21378112 0 0 Z " fill="#094D87" transform="translate(1067,1101)"/>
<path d="M0 0 C4.95 0 9.9 0 15 0 C15.01458252 1.60439941 15.02916504 3.20879883 15.04418945 4.86181641 C15.10222027 10.82200253 15.1794539 16.78181277 15.26245117 22.74169922 C15.29567781 25.3197621 15.32371673 27.89789733 15.34643555 30.47607422 C15.38002207 34.18488354 15.43234244 37.8930312 15.48828125 41.6015625 C15.49467117 42.75177887 15.5010611 43.90199524 15.50764465 45.08706665 C15.64780855 52.96180554 15.64780855 52.96180554 19 60 C24.20603914 64.69813288 27.37198585 65.31075218 34.2421875 65.203125 C38.62894558 64.88002101 41.38417994 63.83202304 44.32524109 60.49743652 C48.66405667 54.34654091 48.73242138 48.76568238 48.70703125 41.40625 C48.72215256 40.21898315 48.73727386 39.03171631 48.75285339 37.80847168 C48.7956343 34.03878645 48.80455982 30.26990352 48.8125 26.5 C48.83565154 23.93487465 48.86101822 21.36976827 48.88867188 18.8046875 C48.95142975 12.53645063 48.98643985 6.26852607 49 0 C51.31243792 -0.02685412 53.6249627 -0.04632841 55.9375 -0.0625 C57.22527344 -0.07410156 58.51304687 -0.08570313 59.83984375 -0.09765625 C63 0 63 0 64 1 C64.11436406 2.62375616 64.15960217 4.25244134 64.17700195 5.88012695 C64.19625481 7.44359612 64.19625481 7.44359612 64.21589661 9.03865051 C64.22328354 10.17702866 64.23067047 11.3154068 64.23828125 12.48828125 C64.246353 13.65699265 64.25442474 14.82570404 64.26274109 16.02983093 C64.27661083 18.5157217 64.28731996 21.00163175 64.29516602 23.48754883 C64.31225463 27.2583556 64.35610083 31.02825724 64.40039062 34.79882812 C64.41052814 37.21613939 64.41904092 39.63345812 64.42578125 42.05078125 C64.44328934 43.16689285 64.46079742 44.28300446 64.47883606 45.43293762 C64.45422915 54.49145499 62.74677696 62.63747189 57.875 70.375 C49.41737299 78.09718118 40.69963838 81.47510624 29.3125 81.2421875 C20.22977423 80.57812029 13.48258585 77.43134011 7 71 C2.2721318 65.02674213 -0.26118788 58.76727378 -0.22705078 51.08642578 C-0.22689972 49.94569611 -0.22674866 48.80496643 -0.22659302 47.62966919 C-0.21627045 46.41383148 -0.20594788 45.19799377 -0.1953125 43.9453125 C-0.1924826 42.68862762 -0.18965271 41.43194275 -0.18673706 40.13717651 C-0.17746123 36.81299136 -0.15952381 33.48908576 -0.1373291 30.16497803 C-0.11678812 26.76625979 -0.10771778 23.36751256 -0.09765625 19.96875 C-0.07563376 13.31241338 -0.04112308 6.65624492 0 0 Z " fill="#074C87" transform="translate(801,1103)"/>
<path d="M0 0 C0.88602402 0.00222061 1.77204803 0.00444122 2.68492126 0.00672913 C3.68588333 0.00680466 4.6868454 0.00688019 5.71813965 0.00695801 C6.80666733 0.01211929 7.89519501 0.01728058 9.01670837 0.02259827 C10.67928932 0.02472069 10.67928932 0.02472069 12.37545776 0.02688599 C15.93168281 0.03250418 19.48784596 0.04505977 23.04405212 0.05775452 C25.44834809 0.06276717 27.85264504 0.06733048 30.25694275 0.07142639 C36.1651699 0.08247953 42.0733505 0.09975635 47.98155212 0.12025452 C47.98155212 4.41025452 47.98155212 8.70025452 47.98155212 13.12025452 C36.10155212 13.12025452 24.22155212 13.12025452 11.98155212 13.12025452 C11.98155212 19.39025452 11.98155212 25.66025452 11.98155212 32.12025452 C14.13557556 32.10865295 16.289599 32.09705139 18.50889587 32.08509827 C20.58726352 32.07730715 22.66562955 32.0712307 24.7440033 32.06532288 C26.19225285 32.06028351 27.64049729 32.05345199 29.08872986 32.04481506 C31.166298 32.03273205 33.2437991 32.0270224 35.32139587 32.02259827 C36.572995 32.01736145 37.82459412 32.01212463 39.11412048 32.00672913 C41.98155212 32.12025452 41.98155212 32.12025452 42.98155212 33.12025452 C43.08029028 35.11825023 43.11127012 37.1198261 43.10655212 39.12025452 C43.11041931 40.75994202 43.11041931 40.75994202 43.11436462 42.43275452 C42.98155212 45.12025452 42.98155212 45.12025452 41.98155212 46.12025452 C39.76299948 46.20808993 37.54166716 46.2272006 35.32139587 46.21791077 C34.32469627 46.21578835 34.32469627 46.21578835 33.30786133 46.21362305 C31.17821313 46.2080097 29.04866873 46.19545505 26.91905212 46.18275452 C25.47829843 46.17774123 24.03754309 46.17317803 22.5967865 46.16908264 C19.05830254 46.15888528 15.52004399 46.13931282 11.98155212 46.12025452 C11.98155212 52.72025452 11.98155212 59.32025452 11.98155212 66.12025452 C14.49651306 66.10865295 17.011474 66.09705139 19.60264587 66.08509827 C22.02850722 66.07730779 24.45436719 66.07123098 26.88023376 66.06532288 C28.57099528 66.06028262 30.26175241 66.05345047 31.95249939 66.04481506 C34.37755919 66.03273595 36.80256156 66.02702329 39.22764587 66.02259827 C40.36827736 66.01485634 40.36827736 66.01485634 41.5319519 66.00695801 C43.34887783 66.00676214 45.1656834 66.05828175 46.98155212 66.12025452 C47.98155212 67.12025452 47.98155212 67.12025452 48.07920837 70.06166077 C48.06760681 71.2566217 48.05600525 72.45158264 48.04405212 73.68275452 C48.03502869 74.88029358 48.02600525 76.07783264 48.01670837 77.31166077 C48.00510681 78.2384967 47.99350525 79.16533264 47.98155212 80.12025452 C40.87910213 80.14552239 33.77666364 80.16308652 26.67417908 80.17518616 C24.2558804 80.18022801 21.83758479 80.1870613 19.41929626 80.19569397 C15.95175929 80.20776608 12.48426246 80.21348415 9.01670837 80.21791077 C7.92818069 80.22307205 6.83965302 80.22823334 5.71813965 80.23355103 C4.21669655 80.23366432 4.21669655 80.23366432 2.68492126 80.23377991 C1.35588524 80.23711082 1.35588524 80.23711082 0 80.24050903 C-2.01844788 80.12025452 -2.01844788 80.12025452 -3.01844788 79.12025452 C-3.11874644 76.69168416 -3.15463212 74.29153839 -3.14784241 71.86244202 C-3.14959473 71.10312378 -3.15134705 70.34380554 -3.15315247 69.56147766 C-3.15757117 67.03938036 -3.15463294 64.51735259 -3.15126038 61.99525452 C-3.15193341 60.25029995 -3.15290343 58.50534548 -3.15415955 56.76039124 C-3.15563654 53.09843556 -3.1534819 49.43650424 -3.14881897 45.77455139 C-3.14312168 41.06980959 -3.14640067 36.36512483 -3.15239143 31.66038513 C-3.155997 28.0557156 -3.15485848 24.4510597 -3.15226364 20.84638977 C-3.15159436 19.11116021 -3.15242284 17.37592943 -3.15474319 15.64070129 C-3.15726964 13.21978964 -3.15342926 10.79897165 -3.14784241 8.37806702 C-3.14986664 7.65387573 -3.15189087 6.92968445 -3.15397644 6.18354797 C-3.12820668 0.18637141 -3.12820668 0.18637141 0 0 Z " fill="#084C87" transform="translate(396.01844787597656,1102.8797454833984)"/>
<path d="M0 0 C7.634562 4.20416759 7.634562 4.20416759 10.3125 7.2734375 C10.3125 11.2734375 10.3125 11.2734375 8.921875 13.23046875 C8.30828125 13.84277344 7.6946875 14.45507812 7.0625 15.0859375 C6.45921875 15.71113281 5.8559375 16.33632812 5.234375 16.98046875 C3.3125 18.2734375 3.3125 18.2734375 1.35546875 18.1328125 C-0.93738378 17.16832387 -2.98456324 15.97787393 -5.125 14.7109375 C-11.80603477 11.31614287 -18.91589331 10.83121554 -26.1171875 13.0078125 C-33.14281786 16.24225365 -37.48563051 21.47611593 -40.73046875 28.3984375 C-43.14825291 35.66165848 -42.74039882 42.86058668 -39.5 49.7734375 C-35.72362596 56.29242956 -30.991212 61.06588468 -23.6875 63.2734375 C-15.75746392 64.3686343 -9.70792637 63.54859712 -2.80859375 59.46484375 C0.85236576 57.40850369 0.85236576 57.40850369 3.3125 57.2734375 C5.48828125 58.78515625 5.48828125 58.78515625 7.625 60.9609375 C8.34300781 61.66605469 9.06101562 62.37117188 9.80078125 63.09765625 C11.3125 65.2734375 11.3125 65.2734375 11.3046875 67.3515625 C8.58043389 72.62846318 0.54514326 76.013887 -4.6875 78.2734375 C-16.19847095 81.19784634 -28.4232543 80.26848366 -38.6875 74.2734375 C-48.77162368 67.84207689 -55.62709636 58.92651291 -58.6875 47.2734375 C-60.31886767 34.41025733 -58.49826205 23.09198601 -50.6328125 12.59375 C-38.32058612 -2.09191762 -17.96418967 -7.91547108 0 0 Z " fill="#094D87" transform="translate(736.6875,1104.7265625)"/>
<path d="M0 0 C18.48 0 36.96 0 56 0 C56 13.86 56 27.72 56 42 C37.52 42 19.04 42 0 42 C0 28.14 0 14.28 0 0 Z " fill="#054A86" transform="translate(591,729)"/>
<path d="M0 0 C13.86 0 27.72 0 42 0 C42 16.5 42 33 42 50 C28.14 50 14.28 50 0 50 C0 33.5 0 17 0 0 Z " fill="#C39A6F" transform="translate(1008,577)"/>
<path d="M0 0 C13.2 0 26.4 0 40 0 C40 15.84 40 31.68 40 48 C26.8 48 13.6 48 0 48 C0 32.16 0 16.32 0 0 Z " fill="#C3996C" transform="translate(910,578)"/>
<path d="M0 0 C13.53 0 27.06 0 41 0 C41 14.85 41 29.7 41 45 C27.47 45 13.94 45 0 45 C0 30.15 0 15.3 0 0 Z " fill="#FEFEFE" transform="translate(910,627)"/>
<path d="M0 0 C13.86 0 27.72 0 42 0 C42 13.86 42 27.72 42 42 C28.14 42 14.28 42 0 42 C0 28.14 0 14.28 0 0 Z " fill="#FCFDFD" transform="translate(549,729)"/>
<path d="M0 0 C4.62 0 9.24 0 14 0 C15.6939938 1.6939938 15.1258158 3.80292438 15.13552856 6.06329346 C15.13350433 6.78748474 15.1314801 7.51167603 15.12939453 8.2578125 C15.13114685 9.01713074 15.13289917 9.77644897 15.13470459 10.55877686 C15.1391233 13.08087416 15.13618506 15.60290193 15.1328125 18.125 C15.13348553 19.86995456 15.13445555 21.61490904 15.13571167 23.35986328 C15.13718867 27.02181895 15.13503403 30.68375028 15.13037109 34.34570312 C15.1246738 39.05044492 15.1279528 43.75512968 15.13394356 48.45986938 C15.13754912 52.06453891 15.13641061 55.66919482 15.13381577 59.27386475 C15.13314648 61.00909431 15.13397496 62.74432509 15.13629532 64.47955322 C15.13882177 66.90046487 15.13498138 69.32128286 15.12939453 71.7421875 C15.13141876 72.46637878 15.13344299 73.19057007 15.13552856 73.93670654 C15.11426266 78.88573734 15.11426266 78.88573734 14 80 C9.38 80 4.76 80 0 80 C0 53.6 0 27.2 0 0 Z " fill="#0C4F89" transform="translate(608,1103)"/>
<path d="M0 0 C0 0.33 0 0.66 0 1 C-18.48 1 -36.96 1 -56 1 C-56 75.25 -56 149.5 -56 226 C-37.52 226 -19.04 226 0 226 C0 226.33 0 226.66 0 227 C-18.81 227 -37.62 227 -57 227 C-57 152.42 -57 77.84 -57 1 C-70.53 1 -84.06 1 -98 1 C-98 75.58 -98 150.16 -98 227 C-116.81 227 -135.62 227 -155 227 C-155 226.67 -155 226.34 -155 226 C-136.52 226 -118.04 226 -99 226 C-99 151.75 -99 77.5 -99 1 C-131.34 1 -163.68 1 -197 1 C-197 75.58 -197 150.16 -197 227 C-215.81 227 -234.62 227 -254 227 C-254 226.67 -254 226.34 -254 226 C-235.52 226 -217.04 226 -198 226 C-198 151.75 -198 77.5 -198 1 C-216.48 1 -234.96 1 -254 1 C-254 0.67 -254 0.34 -254 0 C-169.30464412 -0.96552535 -84.69535588 -0.96552535 0 0 Z " fill="#8FA7BA" transform="translate(647,827)"/>
<path d="M0 0 C13.86 0 27.72 0 42 0 C42 7 42 7 39.90893555 9.5559082 C38.932229 10.35859131 37.95552246 11.16127441 36.94921875 11.98828125 C35.83840637 12.93584506 34.7309853 13.88739466 33.62646484 14.84228516 C33.03573181 15.34794006 32.44499878 15.85359497 31.83636475 16.37457275 C28.59086248 19.24727428 25.56476272 22.33600597 22.51953125 25.41796875 C21.5732637 26.36979538 21.5732637 26.36979538 20.60787964 27.34085083 C18.67366418 29.28734878 16.74267433 31.2369953 14.8125 33.1875 C12.21769136 35.80883461 9.61960362 38.42685642 7.01953125 41.04296875 C6.42799759 41.64280075 5.83646393 42.24263275 5.227005 42.86064148 C3.83677899 44.25934346 2.42105227 45.63262805 1 47 C0.67 47 0.34 47 0 47 C0 31.49 0 15.98 0 0 Z " fill="#FDFEFC" transform="translate(1008,627)"/>
<path d="M0 0 C18.81 0 37.62 0 57 0 C57 86.46 57 172.92 57 262 C56.67 262 56.34 262 56 262 C56 175.87 56 89.74 56 1 C38.18 1 20.36 1 2 1 C2 103.3 2 205.6 2 311 C3.32 311.33 4.64 311.66 6 312 C4.71034824 313.37562854 3.37310707 314.70766393 2 316 C1.34 316 0.68 316 0 316 C0 211.72 0 107.44 0 0 Z " fill="#366792" transform="translate(1050,316)"/>
<path d="M0 0 C13.86 0 27.72 0 42 0 C40.32764893 3.34470214 39.33371704 4.91507801 36.8046875 7.42578125 C36.17046875 8.05806641 35.53625 8.69035156 34.8828125 9.34179688 C34.22023438 9.99212891 33.55765625 10.64246094 32.875 11.3125 C32.235625 11.95123047 31.59625 12.58996094 30.9375 13.24804688 C27.72612734 16.4304011 24.46146504 19.50298506 21.03515625 22.453125 C16.65718977 26.23521347 12.61352309 30.31096855 8.5625 34.4375 C7.14941047 35.87593642 5.73417027 37.31226442 4.31640625 38.74609375 C3.70224854 39.37185303 3.08809082 39.9976123 2.45532227 40.64233398 C1 42 1 42 0 42 C0 28.14 0 14.28 0 0 Z " fill="#FAFBFB" transform="translate(909,729)"/>
<path d="M0 0 C0 106.92 0 213.84 0 324 C-18.48 324 -36.96 324 -56 324 C-56.26474211 289.9351572 -56.48623314 255.87131586 -56.61278395 221.80575325 C-56.62779173 217.78049384 -56.64332367 213.75523662 -56.65917969 209.72998047 C-56.66390128 208.527989 -56.66390128 208.527989 -56.66871825 207.30171487 C-56.72087913 194.34086246 -56.81546223 181.38065129 -56.92583355 168.4201788 C-57.03820783 155.11313485 -57.10473777 141.80642582 -57.12906194 128.49892688 C-57.14549639 120.2926023 -57.19732048 112.08809031 -57.2949976 103.88232401 C-57.35862417 98.24879736 -57.37755886 92.61620222 -57.36201653 86.98234269 C-57.35435739 83.73497023 -57.37239612 80.49140318 -57.4304657 77.24445152 C-57.79635539 55.7252684 -57.79635539 55.7252684 -51.75828671 49.09707236 C-49.30645057 46.81977308 -46.74607324 44.91545482 -44 43 C-42.97404579 42.02664603 -41.95784866 41.04044507 -41 40 C-41.85335757 44.47711397 -44.43197747 46.98423718 -47.5 50.1875 C-48.01175781 50.73341797 -48.52351562 51.27933594 -49.05078125 51.84179688 C-50.68244423 53.57893675 -52.31462175 55.31462175 -54 57 C-54.10156516 58.42288493 -54.13397057 59.85077096 -54.1386652 61.27726841 C-54.14413964 62.20584268 -54.14961409 63.13441695 -54.15525442 64.09112984 C-54.15623253 65.12320924 -54.15721064 66.15528865 -54.15821838 67.21864319 C-54.16315636 68.30572254 -54.16809434 69.39280189 -54.17318195 70.51282305 C-54.18864157 74.18571178 -54.19694036 77.85858292 -54.20532227 81.53149414 C-54.21489415 84.15229957 -54.22490381 86.77310343 -54.23532104 89.39390564 C-54.25711506 95.05187811 -54.2752488 100.70985294 -54.29092598 106.36784554 C-54.31359804 114.54844352 -54.34174451 122.72901538 -54.37124526 130.90959125 C-54.41895391 144.18068278 -54.46220919 157.45178497 -54.50268555 170.72290039 C-54.54202384 183.6177656 -54.58344605 196.51262133 -54.62768555 209.4074707 C-54.63040982 210.2017488 -54.63313409 210.9960269 -54.63594092 211.81437404 C-54.64962012 215.79886647 -54.66334045 219.78335877 -54.67708123 223.767851 C-54.79109741 256.84521542 -54.89707885 289.92259873 -55 323 C-37.18 323 -19.36 323 -1 323 C-1.33 217.73 -1.66 112.46 -2 4 C-5.3 7.3 -8.6 10.6 -12 14 C-13.65 14.66 -15.3 15.32 -17 16 C-3.72340426 0 -3.72340426 0 0 0 Z " fill="#104878" transform="translate(1008,729)"/>
<path d="M0 0 C3.34125 -0.0825 6.6825 -0.165 10.125 -0.25 C11.16672363 -0.28641602 12.20844727 -0.32283203 13.28173828 -0.36035156 C20.44280239 -0.4457499 23.70583493 0.81564043 28.875 5.8125 C30.5542101 9.07763075 30.43721578 11.37735495 30 15 C27.97333762 18.70390021 26.51955484 20.65363011 23 23 C20.5480957 23.22705078 20.5480957 23.22705078 17.67578125 23.1953125 C16.74934814 23.19031738 15.82291504 23.18532227 14.8684082 23.18017578 C13.6949585 23.16196777 12.52150879 23.14375977 11.3125 23.125 C5.7128125 23.063125 5.7128125 23.063125 0 23 C0 15.41 0 7.82 0 0 Z " fill="#F7FBFC" transform="translate(939,1116)"/>
<path d="M0 0 C2.866875 -0.061875 5.73375 -0.12375 8.6875 -0.1875 C10.02880981 -0.22846802 10.02880981 -0.22846802 11.3972168 -0.27026367 C16.10305502 -0.31934329 19.18440656 -0.06715011 23 3 C25.12738138 5.71424521 25.92909561 7.5239277 26.4375 10.9375 C25.75968753 15.68218726 23.63579478 18.69990937 19.90625 21.6640625 C15.91841804 23.49717881 12.51051578 23.32772604 8.1875 23.1875 C4.1346875 23.0946875 4.1346875 23.0946875 0 23 C0 15.41 0 7.82 0 0 Z " fill="#F3F8FA" transform="translate(514,1117)"/>
<path d="M0 0 C0 140.25 0 280.5 0 425 C-18.15 425 -36.3 425 -55 425 C-55 423.35 -55 421.7 -55 420 C-54.67 421.32 -54.34 422.64 -54 424 C-36.51 424 -19.02 424 -1 424 C-1.33 285.4 -1.66 146.8 -2 4 C-3.32 5.65 -4.64 7.3 -6 9 C-7.38431198 10.30600236 -8.79991881 11.57993099 -10.25 12.8125 C-11.30960938 13.71935547 -11.30960938 13.71935547 -12.390625 14.64453125 C-12.92171875 15.09183594 -13.4528125 15.53914062 -14 16 C-14.66 15.67 -15.32 15.34 -16 15 C-13.5248518 12.49599357 -11.04423106 9.99748094 -8.5625 7.5 C-7.85544922 6.78457031 -7.14839844 6.06914063 -6.41992188 5.33203125 C-5.74638672 4.65527344 -5.07285156 3.97851562 -4.37890625 3.28125 C-3.7557251 2.65283203 -3.13254395 2.02441406 -2.49047852 1.37695312 C-1 0 -1 0 0 0 Z " fill="#0B497F" transform="translate(1106,628)"/>
<path d="M0 0 C0.33 0 0.66 0 1 0 C1 13.86 1 27.72 1 42 C101.32 42 201.64 42 305 42 C305 42.33 305 42.66 305 43 C267.24244165 43.12852714 229.48487993 43.25601706 191.72731361 43.38218227 C187.23430606 43.39719631 182.74129853 43.41221864 178.24829102 43.42724609 C177.35409582 43.43023671 176.45990062 43.43322732 175.5386086 43.43630856 C161.20202569 43.48427652 146.86544512 43.53291024 132.52886534 43.58180541 C117.73560012 43.63224271 102.9423325 43.68192891 88.14906257 43.73096704 C79.87476454 43.75841572 71.60046783 43.78617628 63.32617378 43.81480408 C23.55058007 43.95223035 -16.22412785 44.03487198 -56 44 C-56 43.34 -56 42.68 -56 42 C-37.52 42 -19.04 42 0 42 C0 28.14 0 14.28 0 0 Z " fill="#B2A99C" transform="translate(548,729)"/>
<path d="M0 0 C0.33 0.99 0.66 1.98 1 3 C-0.21798288 3.79986804 -0.21798288 3.79986804 -1.46057147 4.61589503 C-4.22462496 6.7626754 -4.22462496 6.7626754 -4.62740451 9.81794858 C-4.62854367 10.91609977 -4.62968283 12.01425097 -4.63085651 13.14567947 C-4.64429515 14.41463287 -4.65773379 15.68358626 -4.67157966 16.99099278 C-4.66124361 18.40197785 -4.65044591 19.81295959 -4.63923645 21.22393799 C-4.64554573 22.72057844 -4.65404712 24.217211 -4.66455668 25.71382785 C-4.68711148 29.83234049 -4.67847939 33.95029443 -4.6648711 38.06882477 C-4.65562689 42.50783689 -4.67513914 46.946732 -4.69119263 51.38571167 C-4.71506171 59.07846541 -4.72063407 66.7710589 -4.71384621 74.4638443 C-4.70405842 85.58633979 -4.72176064 96.70865722 -4.74621352 107.83112392 C-4.78513634 125.8757011 -4.80176802 143.92022747 -4.80444336 161.96484375 C-4.80709009 179.49546923 -4.82019664 197.02603532 -4.84741211 214.55664062 C-4.84908549 215.63688213 -4.85075887 216.71712364 -4.85248295 217.83009973 C-4.86094231 223.24925127 -4.86960774 228.66840245 -4.87837565 234.0875535 C-4.95086939 279.0583586 -4.98721294 324.02914097 -5 369 C-5.33 369 -5.66 369 -6 369 C-6.13727277 322.85812338 -6.24302727 276.71626835 -6.30639198 230.57422786 C-6.3138964 225.12923751 -6.32166231 219.68424756 -6.32958984 214.23925781 C-6.33116371 213.15523851 -6.33273757 212.07121921 -6.33435912 210.95435084 C-6.36048136 193.39202265 -6.40779673 175.82981206 -6.46291678 158.26755367 C-6.51898606 140.25287435 -6.55234426 122.2382567 -6.56453097 104.2234937 C-6.57277198 93.10346883 -6.59881896 81.98377634 -6.6474988 70.86385377 C-6.67916539 63.2429901 -6.68881174 55.62229876 -6.68100826 48.00137405 C-6.6771575 43.60152368 -6.68314317 39.20225489 -6.71523285 34.8025074 C-6.74439096 30.77536346 -6.74593326 26.74919317 -6.72539337 22.72200479 C-6.72285419 21.2642838 -6.73050164 19.80650253 -6.74929909 18.34890054 C-6.88209811 7.41670933 -6.88209811 7.41670933 -4.61599088 3.77718759 C-2.95490456 2.09359932 -2.95490456 2.09359932 0 0 Z " fill="#0C497E" transform="translate(1057,677)"/>
<path d="M0 0 C2.56236973 2.28702434 3.86658789 4.47237649 5.26171875 7.59765625 C5.65810547 8.48130859 6.05449219 9.36496094 6.46289062 10.27539062 C7.06907227 11.65500977 7.06907227 11.65500977 7.6875 13.0625 C8.31108398 14.44791992 8.31108398 14.44791992 8.94726562 15.86132812 C12 22.72371459 12 22.72371459 12 25 C4.41 25 -3.18 25 -11 25 C-9.78016639 21.34049917 -8.63656002 17.99231971 -7.08984375 14.51171875 C-6.73986328 13.72345703 -6.38988281 12.93519531 -6.02929688 12.12304688 C-5.66900391 11.31931641 -5.30871094 10.51558594 -4.9375 9.6875 C-4.57333984 8.86443359 -4.20917969 8.04136719 -3.83398438 7.19335938 C-1.12948754 1.12948754 -1.12948754 1.12948754 0 0 Z " fill="#EDF5F9" transform="translate(1068,1131)"/>
<path d="M0 0 C0.66 0 1.32 0 2 0 C2 16.5 2 33 2 50 C3.32 50.33 4.64 50.66 6 51 C4.71034824 52.37562854 3.37310707 53.70766393 2 55 C1.34 55 0.68 55 0 55 C0 36.85 0 18.7 0 0 Z " fill="#2E5878" transform="translate(1050,577)"/>
<path d="M0 0 C4.25414623 -0.02465622 8.50825498 -0.04283899 12.76245117 -0.05493164 C14.21070073 -0.05997101 15.65894517 -0.06680253 17.10717773 -0.07543945 C19.18474588 -0.08752247 21.26224697 -0.09323211 23.33984375 -0.09765625 C24.59144287 -0.10289307 25.84304199 -0.10812988 27.13256836 -0.11352539 C30 0 30 0 31 1 C31.07244053 3.01964199 31.08377188 5.04167124 31.0625 7.0625 C31.05347656 8.16722656 31.04445313 9.27195312 31.03515625 10.41015625 C31.02355469 11.26480469 31.01195312 12.11945313 31 13 C30.34 13 29.68 13 29 13 C29 9.37 29 5.74 29 2 C19.76 2 10.52 2 1 2 C0.67 1.34 0.34 0.68 0 0 Z " fill="#31648F" transform="translate(408,1135)"/>
<path d="M0 0 C11.55 0 23.1 0 35 0 C35 0.66 35 1.32 35 2 C34.01604248 2.02505615 33.03208496 2.0501123 32.01831055 2.07592773 C28.36729943 2.1701082 24.71647384 2.2703029 21.06567383 2.37231445 C19.48563985 2.41562305 17.90556031 2.45730106 16.32543945 2.49731445 C14.05405952 2.55511583 11.78290811 2.6187816 9.51171875 2.68359375 C8.80536789 2.70030624 8.09901703 2.71701874 7.3712616 2.73423767 C4.3335176 2.8259747 1.90376942 3.03207686 -1 4 C-0.67 2.68 -0.34 1.36 0 0 Z " fill="#CBDFEB" transform="translate(1051,1168)"/>
<path d="M0 0 C0.66 0 1.32 0 2 0 C2 16.17 2 32.34 2 49 C1.67 49 1.34 49 1 49 C0.67 33.82 0.34 18.64 0 3 C-0.66 2.67 -1.32 2.34 -2 2 C-1.34 1.34 -0.68 0.68 0 0 Z " fill="#9F8D78" transform="translate(1105,578)"/>
<path d="M0 0 C0.33 0.66 0.66 1.32 1 2 C-3.8836671 7.90436923 -9.1719243 13.03093773 -15 18 C-15.66 17.67 -16.32 17.34 -17 17 C-11.39 11.39 -5.78 5.78 0 0 Z " fill="#A69580" transform="translate(1091,592)"/>
<path d="M0 0 C0.66 0.33 1.32 0.66 2 1 C1.67 2.32 1.34 3.64 1 5 C-3.95 5 -8.9 5 -14 5 C-14 4.34 -14 3.68 -14 3 C-9.38 3 -4.76 3 0 3 C0 2.01 0 1.02 0 0 Z " fill="#164C7B" transform="translate(981,1178)"/>
<path d="M0 0 C0 4.19902873 -2.20971967 6.12355899 -5 9 C-7.61000857 11.40255872 -10.2821458 13.72050938 -13 16 C-13.66 15.67 -14.32 15.34 -15 15 C-10.05 10.05 -5.1 5.1 0 0 Z " fill="#285171" transform="translate(1105,628)"/>
<path d="M0 0 C0 3.49889647 -0.54120332 4.0553603 -2.75 6.625 C-3.26046875 7.23601563 -3.7709375 7.84703125 -4.296875 8.4765625 C-6.19607419 10.17538747 -7.51275949 10.5998787 -10 11 C-6.79239749 7.19364503 -3.59253891 3.45436433 0 0 Z " fill="#234F74" transform="translate(990,745)"/>
<path d="M0 0 C0 3.99476331 -1.28869085 5.1421336 -4 8 C-6.75 9.3125 -6.75 9.3125 -9 10 C-8.06409496 8.8944811 -7.12620142 7.79064547 -6.1875 6.6875 C-5.66542969 6.07261719 -5.14335938 5.45773437 -4.60546875 4.82421875 C-3.12827531 3.14575321 -1.59960869 1.56117966 0 0 Z " fill="#164A74" transform="translate(1067,667)"/>
<path d="M0 0 C0 4.38968456 -2.12805101 5.76905739 -5 9 C-5.99 8.67 -6.98 8.34 -8 8 C-5.36 5.36 -2.72 2.72 0 0 Z " fill="#114876" transform="translate(1076,658)"/>
<path d="M0 0 C0.66 0.33 1.32 0.66 2 1 C-0.64 3.64 -3.28 6.28 -6 9 C-6.66 8.67 -7.32 8.34 -8 8 C-5.58443874 4.80800833 -3.31996462 2.25283313 0 0 Z " fill="#D6E9F2" transform="translate(706,1119)"/>
<path d="M0 0 C1.39195915 4.17587745 -0.17676781 6.13474776 -2 10 C-2.66 10 -3.32 10 -4 10 C-2.8905928 6.51329166 -1.73662334 3.22515763 0 0 Z " fill="#1E5584" transform="translate(1044,1150)"/>
<path d="M0 0 C0.33 0.99 0.66 1.98 1 3 C-0.65 4.32 -2.3 5.64 -4 7 C-4.66 6.67 -5.32 6.34 -6 6 C-4.02 4.02 -2.04 2.04 0 0 Z " fill="#1B4B73" transform="translate(1057,677)"/>
</svg>
